PathFileType	4	(X/Y/Z)	s10c0001.trc
DataRate	CameraRate	NumFrames	NumMarkers	Units	OrigDataRate	OrigDataStartFrame	OrigNumFrames
200	200	6	49	mm	200	0	2000
Frame#	Time	racr			lacr			c7			jug			rlel			rdr			llel			ldr			s2			lic			ric			lasi			rasi			rpsi			lpsi			rgt			lgt			rth1			rth2			rth3			rth4			rlfc			rmfc			rsh1			rsh2			rsh3			rsh4			rlmal			rmmal			rcal			rtoe			rmt5			rmt1			lth1			lth2			lth4			lth3			llfc			lmfc			llmal			lmmal			lcal			lmt1			lmt5			lsh1			lsh2			lsh3			lsh4			ltoe			
		X1	Y1	Z1	X2	Y2	Z2	X3	Y3	Z3	X4	Y4	Z4	X5	Y5	Z5	X6	Y6	Z6	X7	Y7	Z7	X8	Y8	Z8	X9	Y9	Z9	X10	Y10	Z10	X11	Y11	Z11	X12	Y12	Z12	X13	Y13	Z13	X14	Y14	Z14	X15	Y15	Z15	X16	Y16	Z16	X17	Y17	Z17	X18	Y18	Z18	X19	Y19	Z19	X20	Y20	Z20	X21	Y21	Z21	X22	Y22	Z22	X23	Y23	Z23	X24	Y24	Z24	X25	Y25	Z25	X26	Y26	Z26	X27	Y27	Z27	X28	Y28	Z28	X29	Y29	Z29	X30	Y30	Z30	X31	Y31	Z31	X32	Y32	Z32	X33	Y33	Z33	X34	Y34	Z34	X35	Y35	Z35	X36	Y36	Z36	X37	Y37	Z37	X38	Y38	Z38	X39	Y39	Z39	X40	Y40	Z40	X41	Y41	Z41	X42	Y42	Z42	X43	Y43	Z43	X44	Y44	Z44	X45	Y45	Z45	X46	Y46	Z46	X47	Y47	Z47	X48	Y48	Z48	X49	Y49	Z49	
0	0.0000	463.959503	1377.861694	682.389526	483.391541	1386.190430	304.139893	432.709900	1426.238647	484.194519	564.445312	1374.894775	500.816956	455.164093	1120.583618	813.315002	478.694611	908.836975	926.561829	482.065186	1107.444946	194.688629	536.188293	904.748108	92.125374	388.222534	932.188599	496.078766	535.618286	993.671814	350.475464	539.987488	1001.634644	648.551819	599.365051	919.357666	383.283051	583.128845	907.542114	638.603821	404.821899	974.817749	559.918762	407.824036	985.516113	445.627167	465.870911	853.922180	684.318787	472.219727	855.561951	308.567963	485.514496	729.118164	714.869324	507.865417	642.011963	698.960327	485.439331	561.384766	691.865601	543.647766	645.807434	691.199768	494.233551	459.279938	675.105835	490.259003	446.194397	564.273254	448.210114	360.093536	716.888062	469.344788	273.585846	714.683533	445.366852	190.918625	716.863647	500.374481	274.064056	691.277832	454.191376	85.560585	710.223145	483.942383	97.101135	629.639709	419.010162	52.650963	655.150696	652.233215	86.462410	711.176941	566.127014	41.936947	755.951294	610.326355	49.111778	657.361572	494.392273	747.517151	282.845001	516.015015	663.637207	294.515045	550.084656	669.120605	305.171814	494.734589	578.769653	300.975037	496.695587	473.905914	315.100037	491.599243	454.670868	425.539032	450.895050	104.803551	284.135620	469.755127	100.853004	362.264526	411.365723	59.727425	327.313995	612.062500	47.384789	347.353516	579.879822	47.172287	245.122208	446.653778	365.252716	269.923584	473.483856	282.717224	275.920074	452.333282	195.408020	273.189850	501.288727	282.394806	301.407013	653.804993	93.054794	295.396881	
1	0.0050	463.943970	1377.863403	682.397034	483.408508	1386.196533	304.159058	432.697876	1426.235596	484.216217	564.447876	1374.894531	500.830109	455.156982	1120.568970	813.296814	478.695526	908.824158	926.529114	482.059357	1107.420532	194.726471	536.193970	904.727966	92.151260	388.231201	932.175842	496.087952	535.625488	993.659119	350.455078	539.980347	1001.642395	648.553955	599.388733	919.351135	383.290863	583.117310	907.541443	638.612549	404.820770	974.787781	559.908203	407.859772	985.534241	445.588898	465.860016	853.913147	684.319885	472.251251	855.560059	308.564545	485.503174	729.127136	714.877869	507.903198	642.041260	698.965820	485.429779	561.397827	691.875977	543.615784	645.804810	691.218628	494.228088	459.285400	675.111084	490.306854	446.184784	564.306885	448.208679	360.087219	716.889160	469.341278	273.585266	714.696350	445.409851	190.887878	716.869324	500.384888	274.050934	691.292480	454.220551	85.558113	710.240356	483.985016	97.113388	629.637329	419.043976	52.586346	655.170593	652.249817	86.462227	711.199524	566.116882	41.916885	755.941467	610.299866	49.131836	657.369507	494.445068	747.506958	282.852661	516.013062	663.635010	294.514954	550.125732	669.108887	305.208557	494.755005	578.765137	300.982391	496.709625	473.904938	315.103851	491.598663	454.671234	425.557404	450.914795	104.796280	284.145142	469.785706	100.855171	362.270813	411.360260	59.716026	327.334747	612.066284	47.383587	347.369476	579.859558	47.170334	245.110062	446.661224	365.234558	269.929169	473.491730	282.726959	275.914368	452.358521	195.399918	273.188110	501.285278	282.416870	301.400543	653.827820	93.054451	295.413544	
2	0.0100	463.934631	1377.867065	682.390503	483.433075	1386.192749	304.148865	432.707428	1426.226440	484.190826	564.432129	1374.902832	500.848450	455.141357	1120.563477	813.286316	478.701080	908.815247	926.522522	482.058716	1107.420654	194.728333	536.202087	904.718750	92.165688	388.234070	932.180237	496.076935	535.640625	993.654968	350.462036	539.979675	1001.649841	648.573669	599.414490	919.359436	383.300079	583.114014	907.555847	638.629578	404.815857	974.810425	559.910400	407.849060	985.534546	445.577667	465.859436	853.915894	684.312927	472.266266	855.550964	308.553589	485.503510	729.140259	714.885620	507.424591	643.291504	700.851929	485.431488	561.389343	691.877014	543.607910	645.801697	691.219482	494.230774	459.288635	675.123474	490.291138	446.173981	564.246704	448.201202	360.076874	716.895874	469.339417	273.572754	714.712585	445.405060	190.893448	716.876221	500.393646	274.070190	691.308105	454.202240	85.536308	710.235596	483.960144	97.097366	629.638245	419.046265	52.590733	655.159607	652.245850	86.450447	711.210083	566.113342	41.935947	755.940247	610.314575	49.156780	657.358398	494.449799	747.506348	282.848511	516.038696	663.642578	294.507263	550.133484	669.099548	305.216248	494.770477	578.769897	300.977234	496.736359	473.904907	315.101501	491.614716	454.681000	425.556641	450.895508	104.821945	284.156158	469.789124	100.850266	362.287201	411.355835	59.705555	327.339355	612.066772	47.372261	347.365906	579.886353	47.169975	245.134903	446.686493	365.240662	269.927582	473.504639	282.723083	275.940186	452.348297	195.410812	273.188782	501.292969	282.403320	301.413696	653.818237	93.060425	295.413055	
3	0.0150	463.912323	1377.843140	682.378662	483.417786	1386.208618	304.143524	432.824707	1426.424683	483.979706	564.436829	1374.893555	500.847260	457.222076	1121.024414	814.390076	478.710419	908.808960	926.502075	481.892883	1107.312012	194.731735	536.218445	904.712952	92.191017	388.334076	933.175110	496.887451	535.640198	993.663757	350.466705	539.950012	1001.644714	648.564453	599.429138	919.349182	383.320435	583.107666	907.547119	638.635071	404.487640	975.142273	559.746704	407.860413	985.530701	445.535767	465.877686	853.855408	684.344604	472.288544	855.556335	308.538025	485.480804	729.135010	714.883789	507.559235	643.320862	700.530518	485.411102	561.382507	691.868652	544.446411	645.935425	691.894531	494.226166	459.285522	675.115967	486.289032	443.714233	563.345764	448.196259	360.081909	716.872437	468.918488	273.195709	714.578186	444.612488	190.616669	716.732544	500.461304	274.090240	691.316345	454.188995	85.546257	710.222046	483.478790	95.917412	630.119751	419.030121	52.582081	655.150330	653.026733	86.429382	711.890320	566.108643	41.920746	755.948242	610.312927	48.172791	658.370117	494.477264	747.506836	282.852448	515.845581	667.581604	293.260773	550.523193	668.768860	305.731842	494.781097	578.790344	300.998291	496.750122	473.899841	315.103729	491.614319	454.681427	425.565125	450.915131	104.792915	284.142395	469.778198	100.913658	362.177643	411.348297	59.709568	327.330536	612.068970	47.379089	347.359009	579.883667	47.177612	245.128998	446.697052	365.228638	269.924011	474.488831	283.144318	276.396545	452.363159	195.408234	273.185181	503.144257	284.633881	302.117279	653.730225	93.266083	295.318420	
4	0.0200	463.772461	1378.082764	682.510315	483.505310	1385.921021	304.134216	432.803436	1426.328125	483.657043	564.462158	1374.666504	500.791290	457.194824	1121.072754	814.319458	478.945404	908.909363	926.437500	482.448730	1107.521484	194.864410	536.258972	904.069214	92.355858	387.808014	931.630981	496.958527	535.994019	993.531921	350.717743	540.136108	1001.665955	648.615295	598.658813	918.039185	383.112762	582.917175	907.494446	638.426025	407.092804	972.711914	559.018799	407.147644	983.253540	445.396179	465.941315	853.923157	684.290649	471.931946	854.435059	308.466217	485.275269	729.250916	714.877075	507.027191	643.010803	700.339783	485.263794	561.409485	691.871704	544.477661	645.898315	691.826660	494.057007	459.184113	675.073303	482.274414	441.247406	562.463196	448.349182	360.032104	717.018677	469.537537	273.087189	715.114319	444.379700	190.666672	716.757690	500.978210	273.841797	691.967102	454.085236	85.034416	709.943665	483.522430	95.750031	629.991028	419.779816	51.195637	655.229126	651.990967	85.049858	711.285400	566.099304	42.177597	755.890747	609.763855	46.744171	658.345337	494.093140	746.137451	282.981812	516.271851	664.432861	294.303162	550.360962	666.169495	304.909149	494.569458	577.946228	301.156433	495.666626	472.730072	314.953339	491.617004	454.747894	425.559631	450.986816	104.048813	283.941467	469.883606	101.044540	362.349335	410.917297	58.700005	327.473602	612.133545	46.930157	347.631348	579.669373	46.206512	245.104477	446.437561	364.464935	269.911713	473.167297	281.873322	275.942902	452.261444	194.449295	273.297394	501.384064	283.068085	301.383514	653.437439	92.112297	295.580750	
5	0.0250	463.915497	1378.025635	682.423035	483.479980	1386.161621	304.127258	432.722229	1426.497925	483.893066	564.491394	1374.816406	500.824097	457.192322	1121.049194	814.292725	478.892059	908.833130	926.480591	482.254852	1107.398560	194.796921	536.119751	904.076477	92.331596	388.096069	932.137695	497.028839	535.805664	993.567139	350.718658	540.108643	1001.668091	648.609802	598.632568	918.139954	383.122925	583.062927	907.503845	638.535706	407.046753	972.708496	559.018433	407.387878	984.263245	445.510071	465.913452	853.914307	684.273804	472.144348	854.440979	308.443787	485.467102	729.193848	714.960083	507.545746	643.243225	700.396729	485.413605	561.426636	691.896484	544.486633	645.889282	691.838501	494.184967	459.295166	675.056274	482.221313	441.215393	562.458252	448.277954	360.175476	716.911316	469.267944	273.199554	714.793701	444.413025	190.670441	716.739929	500.749542	274.139557	691.578552	454.087433	85.023979	709.930725	483.543640	95.941704	630.024231	419.870941	50.918556	655.149658	652.142456	85.522408	711.459595	566.081604	42.138878	755.884705	609.344910	46.710541	658.498962	494.056366	746.118408	282.895996	516.424561	664.790588	294.391388	550.441833	666.718506	305.127594	494.639130	577.960876	301.042419	495.772583	472.811493	315.048370	491.594604	454.734406	425.551880	450.760803	104.069237	283.974945	469.879517	101.011559	362.319031	411.090454	58.747856	327.168488	612.094299	47.281967	347.362274	579.446777	46.292278	245.225723	446.344238	364.443176	269.918671	472.950226	281.725952	275.866699	451.946594	194.468979	273.310669	501.757141	283.277161	301.600677	653.476685	92.386314	295.321045	
